Metropolis-Regular Italic.ufo
<glyph name="plus" format="1">
  <advance width="594"/>
  <unicode hex="002B"/>
  <outline>
    <contour>
      <point x="534" y="297" type="line"/>
      <point x="550" y="371" type="line"/>
      <point x="91" y="371" type="line"/>
      <point x="75" y="297" type="line"/>
    </contour>
    <contour>
      <point x="302" y="105" type="line"/>
      <point x="398" y="564" type="line"/>
      <point x="323" y="564" type="line"/>
      <point x="227" y="105" type="line"/>
    </contour>
  </outline>
</glyph>
<glyph name="comma" format="1">
  <advance width="274"/>
  <unicode hex="002C"/>
  <outline>
    <contour>
      <point x="99" y="-75"/>
      <point x="147" y="-25"/>
      <point x="147" y="35" type="curve" smooth="yes"/>
      <point x="147" y="71"/>
      <point x="129" y="96"/>
      <point x="95" y="96" type="curve" smooth="yes"/>
      <point x="65" y="96"/>
      <point x="35" y="73"/>
      <point x="35" y="36" type="curve" smooth="yes"/>
      <point x="35" y="9"/>
      <point x="54" y="-9"/>
      <point x="79" y="-9" type="curve"/>
      <point x="62" y="-40"/>
      <point x="38" y="-72"/>
      <point x="4" y="-103" type="curve"/>
      <point x="39" y="-135" type="line"/>
    </contour>
  </outline>
</glyph>
<glyph name="hyphen" format="1">
  <advance width="372"/>
  <unicode hex="002D"/>
  <outline>
    <contour>
      <point x="310" y="235" type="line"/>
      <point x="326" y="308" type="line"/>
      <point x="67" y="308" type="line"/>
      <point x="51" y="235" type="line"/>
    </contour>
  </outline>
</glyph>
<glyph name="period" format="1">
  <advance width="252"/>
  <unicode hex="002E"/>
  <outline>
    <contour>
      <point x="107" y="-12"/>
      <point x="135" y="17"/>
      <point x="135" y="49" type="curve" smooth="yes"/>
      <point x="135" y="75"/>
      <point x="116" y="96"/>
      <point x="88" y="96" type="curve" smooth="yes"/>
      <point x="58" y="96"/>
      <point x="28" y="72"/>
      <point x="28" y="36" type="curve" smooth="yes"/>
      <point x="28" y="9"/>
      <point x="47" y="-12"/>
      <point x="76" y="-12" type="curve" smooth="yes"/>
    </contour>
  </outline>
</glyph>
<glyph name="one" format="1">
  <advance width="352"/>
  <unicode hex="0031"/>
  <outline>
    <contour>
      <point x="203" y="0" type="line"/>
      <point x="346" y="687" type="line"/>
      <point x="283" y="687" type="line"/>
      <point x="91" y="572" type="line"/>
      <point x="114" y="514" type="line"/>
      <point x="249" y="592" type="line"/>
      <point x="125" y="0" type="line"/>
    </contour>
  </outline>
</glyph>
<glyph name="seven" format="1">
  <advance width="601"/>
  <unicode hex="0037"/>
  <outline>
    <contour>
      <point x="175" y="0" type="line"/>
      <point x="602" y="628" type="line"/>
      <point x="613" y="687" type="line"/>
      <point x="148" y="687" type="line"/>
      <point x="133" y="613" type="line"/>
      <point x="504" y="613" type="line"/>
      <point x="84" y="0" type="line"/>
    </contour>
  </outline>
</glyph>
<glyph name="eight" format="1">
  <advance width="607"/>
  <unicode hex="0038"/>
  <outline>
    <contour>
      <point x="398" y="-12"/>
      <point x="540" y="74"/>
      <point x="540" y="206" type="curve" smooth="yes"/>
      <point x="540" y="278"/>
      <point x="489" y="329"/>
      <point x="423" y="353" type="curve"/>
      <point x="519" y="386"/>
      <point x="594" y="450"/>
      <point x="594" y="544" type="curve" smooth="yes"/>
      <point x="594" y="640"/>
      <point x="502" y="699"/>
      <point x="389" y="699" type="curve" smooth="yes"/>
      <point x="261" y="699"/>
      <point x="122" y="619"/>
      <point x="122" y="490" type="curve" smooth="yes"/>
      <point x="122" y="426"/>
      <point x="165" y="382"/>
      <point x="225" y="357" type="curve"/>
      <point x="119" y="325"/>
      <point x="33" y="252"/>
      <point x="33" y="149" type="curve" smooth="yes"/>
      <point x="33" y="51"/>
      <point x="123" y="-12"/>
      <point x="252" y="-12" type="curve" smooth="yes"/>
    </contour>
    <contour>
      <point x="173" y="59"/>
      <point x="113" y="98"/>
      <point x="113" y="159" type="curve" smooth="yes"/>
      <point x="113" y="248"/>
      <point x="231" y="316"/>
      <point x="321" y="318" type="curve"/>
      <point x="384" y="316"/>
      <point x="463" y="278"/>
      <point x="463" y="211" type="curve" smooth="yes"/>
      <point x="463" y="123"/>
      <point x="359" y="59"/>
      <point x="256" y="59" type="curve" smooth="yes"/>
    </contour>
    <contour>
      <point x="268" y="390"/>
      <point x="198" y="420"/>
      <point x="198" y="483" type="curve" smooth="yes"/>
      <point x="198" y="564"/>
      <point x="291" y="628"/>
      <point x="386" y="628" type="curve" smooth="yes"/>
      <point x="461" y="628"/>
      <point x="514" y="590"/>
      <point x="514" y="534" type="curve" smooth="yes"/>
      <point x="514" y="450"/>
      <point x="410" y="391"/>
      <point x="324" y="386" type="curve"/>
    </contour>
  </outline>
</glyph>
<glyph name="F" format="1">
  <advance width="609"/>
  <unicode hex="0046"/>
  <outline>
    <contour>
      <point x="104" y="0" type="line"/>
      <point x="173" y="333" type="line"/>
      <point x="149" y="313" type="line"/>
      <point x="543" y="313" type="line"/>
      <point x="558" y="387" type="line"/>
      <point x="166" y="387" type="line"/>
      <point x="182" y="367" type="line"/>
      <point x="235" y="633" type="line"/>
      <point x="211" y="613" type="line"/>
      <point x="646" y="613" type="line"/>
      <point x="661" y="687" type="line"/>
      <point x="168" y="687" type="line"/>
      <point x="25" y="0" type="line"/>
    </contour>
  </outline>
</glyph>
<glyph name="G" format="1">
  <advance width="738"/>
  <unicode hex="0047"/>
  <outline>
    <contour>
      <point x="441" y="-12"/>
      <point x="556" y="31"/>
      <point x="629" y="91" type="curve"/>
      <point x="584" y="149" type="line"/>
      <point x="525" y="97"/>
      <point x="435" y="60"/>
      <point x="366" y="60" type="curve" smooth="yes"/>
      <point x="245" y="60"/>
      <point x="143" y="161"/>
      <point x="143" y="280" type="curve" smooth="yes"/>
      <point x="143" y="468"/>
      <point x="299" y="627"/>
      <point x="485" y="627" type="curve" smooth="yes"/>
      <point x="557" y="627"/>
      <point x="633" y="592"/>
      <point x="670" y="542" type="curve"/>
      <point x="731" y="592" type="line"/>
      <point x="681" y="655"/>
      <point x="586" y="699"/>
      <point x="500" y="699" type="curve" smooth="yes"/>
      <point x="264" y="699"/>
      <point x="65" y="507"/>
      <point x="65" y="280" type="curve" smooth="yes"/>
      <point x="65" y="121"/>
      <point x="196" y="-12"/>
      <point x="352" y="-12" type="curve" smooth="yes"/>
    </contour>
    <contour>
      <point x="629" y="91" type="line"/>
      <point x="685" y="360" type="line"/>
      <point x="410" y="360" type="line"/>
      <point x="394" y="286" type="line"/>
      <point x="622" y="286" type="line"/>
      <point x="599" y="327" type="line"/>
      <point x="551" y="91" type="line"/>
    </contour>
    <contour>
      <point x="491" y="687" type="move" name="top"/>
    </contour>
    <contour>
      <point x="351" y="0" type="move" name="bottom"/>
    </contour>
  </outline>
</glyph>
<glyph name="I" format="1">
  <advance width="236"/>
  <unicode hex="0049"/>
  <outline>
    <contour>
      <point x="103" y="0" type="line"/>
      <point x="246" y="687" type="line"/>
      <point x="168" y="687" type="line"/>
      <point x="25" y="0" type="line"/>
    </contour>
    <contour>
      <point x="207" y="687" type="move" name="top"/>
    </contour>
    <contour>
      <point x="103" y="0" type="move" name="bottom"/>
    </contour>
  </outline>
</glyph>
<glyph name="O" format="1">
  <advance width="808"/>
  <unicode hex="004F"/>
  <outline>
    <contour>
      <point x="582" y="-12"/>
      <point x="780" y="182"/>
      <point x="780" y="410" type="curve" smooth="yes"/>
      <point x="780" y="573"/>
      <point x="662" y="699"/>
      <point x="496" y="699" type="curve" smooth="yes"/>
      <point x="261" y="699"/>
      <point x="64" y="506"/>
      <point x="64" y="277" type="curve" smooth="yes"/>
      <point x="64" y="120"/>
      <point x="194" y="-12"/>
      <point x="349" y="-12" type="curve" smooth="yes"/>
    </contour>
    <contour>
      <point x="244" y="60"/>
      <point x="143" y="162"/>
      <point x="143" y="283" type="curve" smooth="yes"/>
      <point x="143" y="470"/>
      <point x="298" y="627"/>
      <point x="482" y="627" type="curve" smooth="yes"/>
      <point x="612" y="627"/>
      <point x="702" y="531"/>
      <point x="702" y="407" type="curve" smooth="yes"/>
      <point x="702" y="228"/>
      <point x="550" y="60"/>
      <point x="364" y="60" type="curve" smooth="yes"/>
    </contour>
    <contour>
      <point x="493" y="687" type="move" name="top"/>
    </contour>
  </outline>
</glyph>
<glyph name="P" format="1">
  <advance width="644"/>
  <unicode hex="0050"/>
  <outline>
    <contour>
      <point x="103" y="0" type="line"/>
      <point x="155" y="247" type="line"/>
      <point x="351" y="247" type="line" smooth="yes"/>
      <point x="517" y="247"/>
      <point x="657" y="363"/>
      <point x="657" y="500" type="curve" smooth="yes"/>
      <point x="657" y="610"/>
      <point x="568" y="687"/>
      <point x="443" y="687" type="curve" smooth="yes"/>
      <point x="168" y="687" type="line"/>
      <point x="25" y="0" type="line"/>
    </contour>
    <contour>
      <point x="231" y="613" type="line"/>
      <point x="427" y="613" type="line" smooth="yes"/>
      <point x="517" y="613"/>
      <point x="580" y="566"/>
      <point x="580" y="499" type="curve" smooth="yes"/>
      <point x="580" y="402"/>
      <point x="483" y="321"/>
      <point x="367" y="321" type="curve" smooth="yes"/>
      <point x="170" y="321" type="line"/>
    </contour>
  </outline>
</glyph>
<glyph name="V" format="1">
  <advance width="755"/>
  <unicode hex="0056"/>
  <outline>
    <contour>
      <point x="366" y="0" type="line"/>
      <point x="812" y="687" type="line"/>
      <point x="725" y="687" type="line"/>
      <point x="280" y="0" type="line"/>
    </contour>
    <contour>
      <point x="365" y="0" type="line"/>
      <point x="204" y="687" type="line"/>
      <point x="121" y="687" type="line"/>
      <point x="281" y="0" type="line"/>
    </contour>
  </outline>
</glyph>
<glyph name="Y" format="1">
  <advance width="671"/>
  <unicode hex="0059"/>
  <outline>
    <contour>
      <point x="322" y="0" type="line"/>
      <point x="382" y="280" type="line"/>
      <point x="742" y="687" type="line"/>
      <point x="646" y="687" type="line"/>
      <point x="347" y="347" type="line"/>
      <point x="186" y="687" type="line"/>
      <point x="107" y="687" type="line"/>
      <point x="300" y="280" type="line"/>
      <point x="240" y="0" type="line"/>
    </contour>
    <contour>
      <point x="416" y="687" type="move" name="top"/>
    </contour>
  </outline>
</glyph>
<glyph name="bracketright" format="1">
  <advance width="367"/>
  <unicode hex="005D"/>
  <outline>
    <contour>
      <point x="208" y="-115" type="line"/>
      <point x="384" y="734" type="line"/>
      <point x="148" y="734" type="line"/>
      <point x="136" y="677" type="line"/>
      <point x="306" y="677" type="line"/>
      <point x="153" y="-58" type="line"/>
      <point x="-17" y="-58" type="line"/>
      <point x="-28" y="-115" type="line"/>
    </contour>
  </outline>
</glyph>
<glyph name="underscore" format="1">
  <advance width="592"/>
  <unicode hex="005F"/>
  <outline>
    <contour>
      <point x="511" y="-142" type="line"/>
      <point x="525" y="-75" type="line"/>
      <point x="-71" y="-75" type="line"/>
      <point x="-85" y="-142" type="line"/>
    </contour>
  </outline>
</glyph>
<glyph name="a" format="1">
  <advance width="640"/>
  <unicode hex="0061"/>
  <outline>
    <contour>
      <point x="503" y="0" type="line"/>
      <point x="611" y="517" type="line"/>
      <point x="536" y="517" type="line"/>
      <point x="428" y="0" type="line"/>
    </contour>
    <component base="lowercase_loop_reverse"/>
    <contour>
      <point x="353" y="517" type="move" name="top"/>
    </contour>
    <contour>
      <point x="503" y="0" type="move" name="bottom"/>
    </contour>
  </outline>
</glyph>
<glyph name="g" format="1">
  <advance width="620"/>
  <unicode hex="0067"/>
  <outline>
    <contour>
      <point x="421" y="58" type="line" smooth="yes"/>
      <point x="400" y="-43"/>
      <point x="312" y="-105"/>
      <point x="196" y="-105" type="curve" smooth="yes"/>
      <point x="129" y="-105"/>
      <point x="74" y="-84"/>
      <point x="42" y="-46" type="curve"/>
      <point x="1" y="-101" type="line"/>
      <point x="40" y="-141"/>
      <point x="112" y="-172"/>
      <point x="198" y="-172" type="curve" smooth="yes"/>
      <point x="341" y="-172"/>
      <point x="465" y="-86"/>
      <point x="494" y="52" type="curve" smooth="yes"/>
      <point x="591" y="517" type="line"/>
      <point x="516" y="517" type="line"/>
    </contour>
    <contour>
      <point x="166" y="105"/>
      <point x="115" y="157"/>
      <point x="115" y="240" type="curve" smooth="yes"/>
      <point x="115" y="356"/>
      <point x="216" y="462"/>
      <point x="337" y="462" type="curve" smooth="yes"/>
      <point x="421" y="462"/>
      <point x="473" y="411"/>
      <point x="473" y="328" type="curve" smooth="yes"/>
      <point x="473" y="215"/>
      <point x="375" y="105"/>
      <point x="251" y="105" type="curve" smooth="yes"/>
    </contour>
    <contour>
      <point x="505" y="398" type="line"/>
      <point x="485" y="473"/>
      <point x="426" y="529"/>
      <point x="324" y="529" type="curve" smooth="yes"/>
      <point x="163" y="529"/>
      <point x="36" y="387"/>
      <point x="36" y="234" type="curve" smooth="yes"/>
      <point x="36" y="114"/>
      <point x="113" y="38"/>
      <point x="232" y="38" type="curve" smooth="yes"/>
      <point x="325" y="38"/>
      <point x="404" y="84"/>
      <point x="459" y="163" type="curve"/>
    </contour>
    <contour>
      <point x="355" y="517" type="move" name="top"/>
    </contour>
    <contour>
      <point x="198" y="-172" type="move" name="bottom"/>
    </contour>
  </outline>
</glyph>
<glyph name="z" format="1">
  <advance width="515"/>
  <unicode hex="007A"/>
  <outline>
    <contour>
      <point x="409" y="0" type="line"/>
      <point x="424" y="71" type="line"/>
      <point x="117" y="71" type="line"/>
      <point x="504" y="458" type="line"/>
      <point x="515" y="517" type="line"/>
      <point x="115" y="517" type="line"/>
      <point x="100" y="446" type="line"/>
      <point x="398" y="446" type="line"/>
      <point x="13" y="59" type="line"/>
      <point x="2" y="0" type="line"/>
    </contour>
    <contour>
      <point x="319" y="517" type="move" name="top"/>
    </contour>
  </outline>
</glyph>
<glyph name="sterling" format="1">
  <advance width="619"/>
  <unicode hex="00A3"/>
  <outline>
    <contour>
      <point x="519" y="0" type="line"/>
      <point x="535" y="74" type="line"/>
      <point x="138" y="74" type="line"/>
      <point x="156" y="50" type="line"/>
      <point x="240" y="460" type="line" smooth="yes"/>
      <point x="260" y="557"/>
      <point x="336" y="628"/>
      <point x="420" y="628" type="curve" smooth="yes"/>
      <point x="490" y="628"/>
      <point x="544" y="590"/>
      <point x="549" y="532" type="curve"/>
      <point x="615" y="582" type="line"/>
      <point x="596" y="649"/>
      <point x="518" y="699"/>
      <point x="423" y="699" type="curve" smooth="yes"/>
      <point x="299" y="699"/>
      <point x="192" y="604"/>
      <point x="163" y="466" type="curve" smooth="yes"/>
      <point x="81" y="74" type="line"/>
      <point x="9" y="38" type="line"/>
      <point x="2" y="0" type="line"/>
    </contour>
    <contour>
      <point x="401" y="261" type="line"/>
      <point x="415" y="328" type="line"/>
      <point x="73" y="328" type="line"/>
      <point x="59" y="261" type="line"/>
    </contour>
  </outline>
</glyph>
<glyph name="dieresis" format="1">
  <advance width="410"/>
  <unicode hex="00A8"/>
  <outline>
    <contour>
      <point x="210" y="597"/>
      <point x="235" y="621"/>
      <point x="235" y="647" type="curve" smooth="yes"/>
      <point x="235" y="670"/>
      <point x="218" y="689"/>
      <point x="193" y="689" type="curve" smooth="yes"/>
      <point x="166" y="689"/>
      <point x="143" y="664"/>
      <point x="143" y="639" type="curve" smooth="yes"/>
      <point x="143" y="616"/>
      <point x="159" y="597"/>
      <point x="185" y="597" type="curve" smooth="yes"/>
    </contour>
    <contour>
      <point x="402" y="597"/>
      <point x="427" y="621"/>
      <point x="427" y="647" type="curve" smooth="yes"/>
      <point x="427" y="670"/>
      <point x="410" y="689"/>
      <point x="385" y="689" type="curve" smooth="yes"/>
      <point x="358" y="689"/>
      <point x="335" y="664"/>
      <point x="335" y="639" type="curve" smooth="yes"/>
      <point x="335" y="616"/>
      <point x="351" y="597"/>
      <point x="377" y="597" type="curve" smooth="yes"/>
    </contour>
    <contour>
      <point x="298" y="704" type="move" name="top"/>
    </contour>
    <contour>
      <point x="259" y="517" type="move" name="_top"/>
    </contour>
  </outline>
</glyph>
<glyph name="macron" format="1">
  <advance width="436"/>
  <unicode hex="00AF"/>
  <outline>
    <contour>
      <point x="443" y="594" type="line"/>
      <point x="454" y="649" type="line"/>
      <point x="144" y="649" type="line"/>
      <point x="133" y="594" type="line"/>
    </contour>
    <contour>
      <point x="311" y="704" type="move" name="top"/>
    </contour>
    <contour>
      <point x="272" y="517" type="move" name="_top"/>
    </contour>
  </outline>
</glyph>
<glyph name="acute" format="1">
  <advance width="328"/>
  <unicode hex="00B4"/>
  <outline>
    <contour>
      <point x="189" y="576" type="line"/>
      <point x="357" y="702" type="line"/>
      <point x="280" y="720" type="line"/>
      <point x="129" y="576" type="line"/>
    </contour>
    <contour>
      <point x="249" y="704" type="move" name="top"/>
    </contour>
    <contour>
      <point x="211" y="517" type="move" name="_top"/>
    </contour>
  </outline>
</glyph>
<glyph name="cedilla" format="1">
  <advance width="312"/>
  <unicode hex="00B8"/>
  <outline>
    <contour>
      <point x="120" y="-192"/>
      <point x="172" y="-156"/>
      <point x="172" y="-101" type="curve" smooth="yes"/>
      <point x="172" y="-68"/>
      <point x="147" y="-45"/>
      <point x="111" y="-45" type="curve" smooth="yes"/>
      <point x="90" y="-45"/>
      <point x="62" y="-52"/>
      <point x="43" y="-65" type="curve"/>
      <point x="92" y="-67" type="line"/>
      <point x="142" y="11" type="line"/>
      <point x="88" y="11" type="line"/>
      <point x="40" y="-67" type="line"/>
      <point x="55" y="-86" type="line"/>
      <point x="66" y="-78"/>
      <point x="80" y="-73"/>
      <point x="94" y="-73" type="curve" smooth="yes"/>
      <point x="110" y="-73"/>
      <point x="122" y="-85"/>
      <point x="122" y="-102" type="curve" smooth="yes"/>
      <point x="122" y="-129"/>
      <point x="98" y="-145"/>
      <point x="57" y="-145" type="curve" smooth="yes"/>
      <point x="38" y="-145"/>
      <point x="16" y="-140"/>
      <point x="0" y="-124" type="curve"/>
      <point x="-24" y="-162" type="line"/>
      <point x="-6" y="-178"/>
      <point x="24" y="-192"/>
      <point x="62" y="-192" type="curve" smooth="yes"/>
    </contour>
    <contour>
      <point x="101" y="0" type="move" name="_bottom"/>
    </contour>
  </outline>
</glyph>
<glyph name="eth" format="1">
  <advance width="629"/>
  <unicode hex="00F0"/>
  <outline>
    <contour>
      <point x="183" y="56"/>
      <point x="131" y="110"/>
      <point x="131" y="193" type="curve" smooth="yes"/>
      <point x="131" y="320"/>
      <point x="231" y="432"/>
      <point x="355" y="432" type="curve" smooth="yes"/>
      <point x="444" y="432"/>
      <point x="492" y="373"/>
      <point x="492" y="294" type="curve" smooth="yes"/>
      <point x="492" y="170"/>
      <point x="390" y="56"/>
      <point x="269" y="56" type="curve" smooth="yes"/>
    </contour>
    <contour>
      <point x="464" y="522"/>
      <point x="494" y="417" type="curve"/>
      <point x="459" y="466"/>
      <point x="411" y="498"/>
      <point x="339" y="498" type="curve" smooth="yes"/>
      <point x="179" y="498"/>
      <point x="53" y="352"/>
      <point x="53" y="192" type="curve" smooth="yes"/>
      <point x="53" y="70"/>
      <point x="135" y="-12"/>
      <point x="265" y="-12" type="curve" smooth="yes"/>
      <point x="445" y="-12"/>
      <point x="578" y="159"/>
      <point x="578" y="342" type="curve" smooth="yes"/>
      <point x="578" y="477"/>
      <point x="497" y="584"/>
      <point x="356" y="714" type="curve"/>
      <point x="278" y="687" type="line"/>
      <point x="376" y="611"/>
    </contour>
    <contour>
      <point x="541" y="640" type="line"/>
      <point x="526" y="702" type="line"/>
      <point x="246" y="587" type="line"/>
      <point x="261" y="525" type="line"/>
    </contour>
  </outline>
</glyph>
<glyph name="Lslash" format="1">
  <advance width="607"/>
  <unicode hex="0141"/>
  <outline>
    <contour>
      <point x="365" y="388" type="line"/>
      <point x="379" y="463" type="line"/>
      <point x="48" y="309" type="line"/>
      <point x="34" y="234" type="line"/>
    </contour>
    <component base="L" xOffset="52"/>
  </outline>
</glyph>
<glyph name="circumflex" format="1">
  <advance width="398"/>
  <unicode hex="02C6"/>
  <outline>
    <contour>
      <point x="188" y="576" type="line"/>
      <point x="285" y="662" type="line"/>
      <point x="345" y="576" type="line"/>
      <point x="401" y="576" type="line"/>
      <point x="328" y="713" type="line"/>
      <point x="258" y="713" type="line"/>
      <point x="129" y="576" type="line"/>
    </contour>
    <contour>
      <point x="292" y="704" type="move" name="top"/>
    </contour>
    <contour>
      <point x="253" y="517" type="move" name="_top"/>
    </contour>
  </outline>
</glyph>
<glyph name="ring" format="1">
  <advance width="332"/>
  <unicode hex="02DA"/>
  <outline>
    <contour>
      <point x="299" y="589"/>
      <point x="361" y="647"/>
      <point x="361" y="714" type="curve" smooth="yes"/>
      <point x="361" y="760"/>
      <point x="328" y="795"/>
      <point x="278" y="795" type="curve" smooth="yes"/>
      <point x="214" y="795"/>
      <point x="151" y="738"/>
      <point x="151" y="672" type="curve" smooth="yes"/>
      <point x="151" y="625"/>
      <point x="185" y="589"/>
      <point x="235" y="589" type="curve" smooth="yes"/>
    </contour>
    <contour>
      <point x="216" y="633"/>
      <point x="196" y="654"/>
      <point x="196" y="681" type="curve" smooth="yes"/>
      <point x="196" y="718"/>
      <point x="233" y="751"/>
      <point x="269" y="751" type="curve" smooth="yes"/>
      <point x="297" y="751"/>
      <point x="316" y="731"/>
      <point x="316" y="704" type="curve" smooth="yes"/>
      <point x="316" y="667"/>
      <point x="280" y="633"/>
      <point x="244" y="633" type="curve" smooth="yes"/>
    </contour>
    <contour>
      <point x="259" y="704" type="move" name="top"/>
    </contour>
    <contour>
      <point x="220" y="517" type="move" name="_top"/>
    </contour>
  </outline>
</glyph>
<glyph name="hungarumlaut" format="1">
  <advance width="528"/>
  <unicode hex="02DD"/>
  <outline>
    <contour>
      <point x="189" y="576" type="line"/>
      <point x="357" y="702" type="line"/>
      <point x="280" y="720" type="line"/>
      <point x="129" y="576" type="line"/>
    </contour>
    <contour>
      <point x="389" y="576" type="line"/>
      <point x="557" y="700" type="line"/>
      <point x="480" y="718" type="line"/>
      <point x="329" y="576" type="line"/>
    </contour>
    <contour>
      <point x="357" y="704" type="move" name="top"/>
    </contour>
    <contour>
      <point x="318" y="517" type="move" name="_top"/>
    </contour>
  </outline>
</glyph>
<glyph name="commaaccentcomb" format="1">
  <advance width="264"/>
  <unicode hex="0326"/>
  <outline>
    <contour>
      <point x="67" y="-222"/>
      <point x="103" y="-186"/>
      <point x="103" y="-134" type="curve" smooth="yes"/>
      <point x="103" y="-103"/>
      <point x="88" y="-82"/>
      <point x="59" y="-82" type="curve" smooth="yes"/>
      <point x="32" y="-82"/>
      <point x="9" y="-107"/>
      <point x="9" y="-132" type="curve" smooth="yes"/>
      <point x="9" y="-155"/>
      <point x="25" y="-173"/>
      <point x="47" y="-170" type="curve"/>
      <point x="33" y="-197"/>
      <point x="11" y="-224"/>
      <point x="-17" y="-250" type="curve"/>
      <point x="13" y="-277" type="line"/>
    </contour>
    <contour>
      <point x="81" y="0" type="move" name="_bottom"/>
    </contour>
    <contour>
      <point x="189" y="517" type="move" name="_top"/>
    </contour>
  </outline>
</glyph>
<glyph name="emdash" format="1">
  <advance width="883"/>
  <unicode hex="2014"/>
  <outline>
    <contour>
      <point x="822" y="236" type="line"/>
      <point x="836" y="307" type="line"/>
      <point x="66" y="307" type="line"/>
      <point x="52" y="236" type="line"/>
    </contour>
  </outline>
</glyph>
<glyph name="guilsinglleft" format="1">
  <advance width="311"/>
  <unicode hex="2039"/>
  <outline>
    <contour>
      <point x="225" y="69" type="line"/>
      <point x="117" y="252" type="line"/>
      <point x="302" y="432" type="line"/>
      <point x="236" y="448" type="line"/>
      <point x="36" y="251" type="line"/>
      <point x="156" y="52" type="line"/>
    </contour>
  </outline>
</glyph>
<glyph name="guilsinglright" format="1">
  <advance width="313"/>
  <unicode hex="203A"/>
  <outline>
    <contour>
      <point x="273" y="251" type="line"/>
      <point x="151" y="448" type="line"/>
      <point x="83" y="432" type="line"/>
      <point x="192" y="252" type="line"/>
      <point x="6" y="69" type="line"/>
      <point x="71" y="52" type="line"/>
    </contour>
  </outline>
</glyph>
<glyph name="a.alt" format="1">
  <advance width="572"/>
  <outline>
    <contour>
      <point x="441" y="0" type="line"/>
      <point x="505" y="311"/>
      <point x="512" y="328"/>
      <point x="512" y="371" type="curve" smooth="yes"/>
      <point x="512" y="465"/>
      <point x="456" y="529"/>
      <point x="336" y="529" type="curve" smooth="yes"/>
      <point x="289" y="529"/>
      <point x="225" y="517"/>
      <point x="143" y="480" type="curve"/>
      <point x="166" y="417" type="line"/>
      <point x="217" y="441"/>
      <point x="274" y="465"/>
      <point x="329" y="465" type="curve" smooth="yes"/>
      <point x="414" y="465"/>
      <point x="438" y="418"/>
      <point x="438" y="365" type="curve" smooth="yes"/>
      <point x="438" y="333"/>
      <point x="435" y="331"/>
      <point x="366" y="0" type="curve"/>
    </contour>
    <contour>
      <point x="267" y="-12"/>
      <point x="370" y="32"/>
      <point x="409" y="120" type="curve"/>
      <point x="399" y="165" type="line"/>
      <point x="365" y="92"/>
      <point x="274" y="54"/>
      <point x="203" y="54" type="curve" smooth="yes"/>
      <point x="141" y="54"/>
      <point x="98" y="81"/>
      <point x="98" y="130" type="curve" smooth="yes"/>
      <point x="98" y="205"/>
      <point x="183" y="262"/>
      <point x="270" y="262" type="curve" smooth="yes"/>
      <point x="338" y="262"/>
      <point x="399" y="251"/>
      <point x="450" y="231" type="curve"/>
      <point x="456" y="283" type="line"/>
      <point x="400" y="307"/>
      <point x="331" y="325"/>
      <point x="261" y="325" type="curve" smooth="yes"/>
      <point x="140" y="325"/>
      <point x="25" y="243"/>
      <point x="25" y="121" type="curve" smooth="yes"/>
      <point x="25" y="39"/>
      <point x="90" y="-12"/>
      <point x="187" y="-12" type="curve" smooth="yes"/>
    </contour>
    <contour>
      <point x="346" y="517" type="move" name="top"/>
    </contour>
    <contour>
      <point x="441" y="0" type="move" name="bottom"/>
    </contour>
  </outline>
</glyph>
<glyph name="ascender" format="1">
  <advance width="641"/>
  <outline>
    <contour>
      <point x="105" y="0" type="line"/>
      <point x="250" y="699" type="line"/>
      <point x="175" y="699" type="line"/>
      <point x="30" y="0" type="line"/>
    </contour>
  </outline>
</glyph>
<glyph name="lowercase_loop" format="1">
  <advance width="610"/>
  <outline>
    <contour>
      <point x="422" y="-12"/>
      <point x="562" y="142"/>
      <point x="562" y="324" type="curve" smooth="yes"/>
      <point x="562" y="435"/>
      <point x="473" y="529"/>
      <point x="368" y="529" type="curve" smooth="yes"/>
      <point x="213" y="529"/>
      <point x="83" y="373"/>
      <point x="83" y="187" type="curve" smooth="yes"/>
      <point x="83" y="79"/>
      <point x="162" y="-12"/>
      <point x="256" y="-12" type="curve" smooth="yes"/>
    </contour>
    <contour>
      <point x="189" y="55"/>
      <point x="122" y="121"/>
      <point x="122" y="199" type="curve" smooth="yes"/>
      <point x="122" y="342"/>
      <point x="228" y="462"/>
      <point x="354" y="462" type="curve" smooth="yes"/>
      <point x="425" y="462"/>
      <point x="484" y="396"/>
      <point x="484" y="318" type="curve" smooth="yes"/>
      <point x="484" y="175"/>
      <point x="386" y="55"/>
      <point x="269" y="55" type="curve" smooth="yes"/>
    </contour>
  </outline>
</glyph>
